<mxfile host="app.diagrams.net" modified="2023-08-24T07:40:51.893Z" agent="Mozilla/5.0 (Macintosh; Intel Mac OS X 10_15_7) AppleWebKit/605.1.15 (KHTML, like Gecko) Version/16.6 Safari/605.1.15" etag="VqMZcMxgIvMZzJ-N_YoI" version="21.6.9" type="github">
  <diagram id="C5RBs43oDa-KdzZeNtuy" name="Page-1">
    <mxGraphModel dx="778" dy="537" grid="1" gridSize="10" guides="1" tooltips="1" connect="1" arrows="1" fold="1" page="1" pageScale="1" pageWidth="827" pageHeight="1169" math="0" shadow="0">
      <root>
        <mxCell id="WIyWlLk6GJQsqaUBKTNV-0" />
        <mxCell id="WIyWlLk6GJQsqaUBKTNV-1" parent="WIyWlLk6GJQsqaUBKTNV-0" />
        <mxCell id="Q19zXJB3J71A10SYPIrb-34" value="文件服务器" style="rounded=0;whiteSpace=wrap;html=1;dashed=1;verticalAlign=top;horizontal=1;" vertex="1" parent="WIyWlLk6GJQsqaUBKTNV-1">
          <mxGeometry x="30" y="280" width="120" height="100" as="geometry" />
        </mxCell>
        <mxCell id="Q19zXJB3J71A10SYPIrb-10" value="采集脚本研发" style="rounded=0;whiteSpace=wrap;html=1;verticalAlign=top;dashed=1;" vertex="1" parent="WIyWlLk6GJQsqaUBKTNV-1">
          <mxGeometry x="180" y="70" width="330" height="310" as="geometry" />
        </mxCell>
        <mxCell id="Q19zXJB3J71A10SYPIrb-18" value="BigMeta&lt;br&gt;" style="rounded=0;whiteSpace=wrap;html=1;verticalAlign=top;dashed=1;" vertex="1" parent="WIyWlLk6GJQsqaUBKTNV-1">
          <mxGeometry x="530" y="70" width="170" height="350" as="geometry" />
        </mxCell>
        <mxCell id="Q19zXJB3J71A10SYPIrb-9" value="工行Hive数据库" style="rounded=0;whiteSpace=wrap;html=1;dashed=1;verticalAlign=top;horizontal=1;" vertex="1" parent="WIyWlLk6GJQsqaUBKTNV-1">
          <mxGeometry x="30" y="70" width="120" height="200" as="geometry" />
        </mxCell>
        <mxCell id="Q19zXJB3J71A10SYPIrb-19" style="edgeStyle=orthogonalEdgeStyle;rounded=0;orthogonalLoop=1;jettySize=auto;html=1;exitX=1;exitY=0.5;exitDx=0;exitDy=0;exitPerimeter=0;" edge="1" parent="WIyWlLk6GJQsqaUBKTNV-1" source="Q19zXJB3J71A10SYPIrb-3" target="Q19zXJB3J71A10SYPIrb-11">
          <mxGeometry relative="1" as="geometry" />
        </mxCell>
        <mxCell id="Q19zXJB3J71A10SYPIrb-3" value="beds_edw&lt;br&gt;数据库" style="strokeWidth=2;html=1;shape=mxgraph.flowchart.database;whiteSpace=wrap;verticalAlign=bottom;" vertex="1" parent="WIyWlLk6GJQsqaUBKTNV-1">
          <mxGeometry x="50" y="110" width="80" height="70" as="geometry" />
        </mxCell>
        <mxCell id="Q19zXJB3J71A10SYPIrb-24" style="edgeStyle=orthogonalEdgeStyle;rounded=0;orthogonalLoop=1;jettySize=auto;html=1;exitX=1;exitY=0.5;exitDx=0;exitDy=0;exitPerimeter=0;entryX=0;entryY=0.5;entryDx=0;entryDy=0;" edge="1" parent="WIyWlLk6GJQsqaUBKTNV-1" source="Q19zXJB3J71A10SYPIrb-5" target="Q19zXJB3J71A10SYPIrb-13">
          <mxGeometry relative="1" as="geometry" />
        </mxCell>
        <mxCell id="Q19zXJB3J71A10SYPIrb-5" value="PDM &amp;amp; SUM&lt;br&gt;Hive hql脚本" style="strokeWidth=2;html=1;shape=mxgraph.flowchart.database;whiteSpace=wrap;verticalAlign=bottom;" vertex="1" parent="WIyWlLk6GJQsqaUBKTNV-1">
          <mxGeometry x="50" y="314" width="80" height="57" as="geometry" />
        </mxCell>
        <mxCell id="Q19zXJB3J71A10SYPIrb-26" style="edgeStyle=orthogonalEdgeStyle;rounded=0;orthogonalLoop=1;jettySize=auto;html=1;exitX=0;exitY=0.5;exitDx=0;exitDy=0;exitPerimeter=0;entryX=0.5;entryY=1;entryDx=0;entryDy=0;entryPerimeter=0;" edge="1" parent="WIyWlLk6GJQsqaUBKTNV-1" source="Q19zXJB3J71A10SYPIrb-6" target="Q19zXJB3J71A10SYPIrb-17">
          <mxGeometry relative="1" as="geometry">
            <Array as="points">
              <mxPoint x="10" y="230" />
              <mxPoint x="10" y="410" />
              <mxPoint x="611" y="410" />
            </Array>
          </mxGeometry>
        </mxCell>
        <mxCell id="Q19zXJB3J71A10SYPIrb-32" value="脚本变量整理输入配置表" style="edgeLabel;html=1;align=center;verticalAlign=middle;resizable=0;points=[];" vertex="1" connectable="0" parent="Q19zXJB3J71A10SYPIrb-26">
          <mxGeometry x="0.0956" y="1" relative="1" as="geometry">
            <mxPoint as="offset" />
          </mxGeometry>
        </mxCell>
        <mxCell id="Q19zXJB3J71A10SYPIrb-6" value="脚本执行变量清单" style="strokeWidth=2;html=1;shape=mxgraph.flowchart.document2;whiteSpace=wrap;size=0.25;" vertex="1" parent="WIyWlLk6GJQsqaUBKTNV-1">
          <mxGeometry x="45" y="200" width="90" height="60" as="geometry" />
        </mxCell>
        <mxCell id="Q19zXJB3J71A10SYPIrb-28" style="edgeStyle=orthogonalEdgeStyle;rounded=0;orthogonalLoop=1;jettySize=auto;html=1;exitX=1;exitY=0.5;exitDx=0;exitDy=0;entryX=0;entryY=0.5;entryDx=0;entryDy=0;" edge="1" parent="WIyWlLk6GJQsqaUBKTNV-1" source="Q19zXJB3J71A10SYPIrb-11" target="Q19zXJB3J71A10SYPIrb-14">
          <mxGeometry relative="1" as="geometry" />
        </mxCell>
        <mxCell id="Q19zXJB3J71A10SYPIrb-11" value="DDL：shell脚本 get_tabledef.sh &lt;br&gt;获取DDL数据" style="shape=parallelogram;perimeter=parallelogramPerimeter;whiteSpace=wrap;html=1;fixedSize=1;" vertex="1" parent="WIyWlLk6GJQsqaUBKTNV-1">
          <mxGeometry x="200" y="160" width="120" height="60" as="geometry" />
        </mxCell>
        <mxCell id="Q19zXJB3J71A10SYPIrb-35" style="edgeStyle=orthogonalEdgeStyle;rounded=0;orthogonalLoop=1;jettySize=auto;html=1;exitX=1;exitY=0.5;exitDx=0;exitDy=0;entryX=0;entryY=0.5;entryDx=0;entryDy=0;entryPerimeter=0;" edge="1" parent="WIyWlLk6GJQsqaUBKTNV-1" source="Q19zXJB3J71A10SYPIrb-13" target="Q19zXJB3J71A10SYPIrb-16">
          <mxGeometry relative="1" as="geometry">
            <Array as="points">
              <mxPoint x="520" y="290" />
              <mxPoint x="520" y="145" />
            </Array>
          </mxGeometry>
        </mxCell>
        <mxCell id="Q19zXJB3J71A10SYPIrb-13" value="shell脚本&lt;br&gt;将数据处理为&lt;br&gt;标准格式后&lt;br&gt;导入PostgreSQL" style="shape=parallelogram;perimeter=parallelogramPerimeter;whiteSpace=wrap;html=1;fixedSize=1;" vertex="1" parent="WIyWlLk6GJQsqaUBKTNV-1">
          <mxGeometry x="354" y="260" width="120" height="60" as="geometry" />
        </mxCell>
        <mxCell id="Q19zXJB3J71A10SYPIrb-30" style="edgeStyle=orthogonalEdgeStyle;rounded=0;orthogonalLoop=1;jettySize=auto;html=1;exitX=1;exitY=0.5;exitDx=0;exitDy=0;entryX=0;entryY=0.5;entryDx=0;entryDy=0;entryPerimeter=0;" edge="1" parent="WIyWlLk6GJQsqaUBKTNV-1" source="Q19zXJB3J71A10SYPIrb-14" target="Q19zXJB3J71A10SYPIrb-16">
          <mxGeometry relative="1" as="geometry" />
        </mxCell>
        <mxCell id="Q19zXJB3J71A10SYPIrb-14" value="shell脚本&lt;br&gt;将数据处理&lt;br&gt;为标准格式后&lt;br&gt;导入PostgreSQL" style="shape=parallelogram;perimeter=parallelogramPerimeter;whiteSpace=wrap;html=1;fixedSize=1;" vertex="1" parent="WIyWlLk6GJQsqaUBKTNV-1">
          <mxGeometry x="354" y="160" width="136" height="60" as="geometry" />
        </mxCell>
        <mxCell id="Q19zXJB3J71A10SYPIrb-31" style="edgeStyle=orthogonalEdgeStyle;rounded=0;orthogonalLoop=1;jettySize=auto;html=1;exitX=0.5;exitY=1;exitDx=0;exitDy=0;exitPerimeter=0;entryX=0.5;entryY=0;entryDx=0;entryDy=0;entryPerimeter=0;" edge="1" parent="WIyWlLk6GJQsqaUBKTNV-1" source="Q19zXJB3J71A10SYPIrb-16" target="Q19zXJB3J71A10SYPIrb-17">
          <mxGeometry relative="1" as="geometry" />
        </mxCell>
        <mxCell id="Q19zXJB3J71A10SYPIrb-16" value="PostgreSQL&lt;br&gt;DB：test&lt;br&gt;&amp;nbsp;schema：public&lt;br&gt;数据格式验证" style="strokeWidth=2;html=1;shape=mxgraph.flowchart.database;whiteSpace=wrap;verticalAlign=bottom;" vertex="1" parent="WIyWlLk6GJQsqaUBKTNV-1">
          <mxGeometry x="551" y="100" width="120" height="90" as="geometry" />
        </mxCell>
        <mxCell id="Q19zXJB3J71A10SYPIrb-17" value="PostgreSQL&lt;br&gt;DB：bigmeta&lt;br&gt;&amp;nbsp;schema：public&lt;br&gt;数据接入AME&lt;br&gt;ame_table_script&lt;br&gt;ame_task_script&lt;br&gt;ame_view_script" style="strokeWidth=2;html=1;shape=mxgraph.flowchart.database;whiteSpace=wrap;verticalAlign=bottom;" vertex="1" parent="WIyWlLk6GJQsqaUBKTNV-1">
          <mxGeometry x="551" y="222" width="120" height="170" as="geometry" />
        </mxCell>
        <mxCell id="Q19zXJB3J71A10SYPIrb-27" style="edgeStyle=orthogonalEdgeStyle;rounded=0;orthogonalLoop=1;jettySize=auto;html=1;exitX=0.5;exitY=1;exitDx=0;exitDy=0;" edge="1" parent="WIyWlLk6GJQsqaUBKTNV-1" source="Q19zXJB3J71A10SYPIrb-10" target="Q19zXJB3J71A10SYPIrb-10">
          <mxGeometry relative="1" as="geometry" />
        </mxCell>
      </root>
    </mxGraphModel>
  </diagram>
</mxfile>
